<svg width="268" height="50" viewBox="0 0 268 50" fill="none" xmlns="http://www.w3.org/2000/svg">
<path d="M88.789 10.335C96.2273 9.48549 102.911 15.0978 103.696 22.8518C104.481 30.6057 99.0674 37.5474 91.6227 38.3334C84.2209 39.1148 77.6059 33.5136 76.8256 25.8045C76.0454 18.0952 81.3937 11.1795 88.789 10.335ZM91.9565 35.0053C97.5866 34.0269 101.401 28.4941 100.493 22.6222C99.586 16.7505 94.2975 12.7451 88.6573 13.6579C82.9725 14.5778 79.0912 20.1417 80.0059 26.0601C80.9205 31.9782 86.2818 35.9913 91.9565 35.0053Z" fill="currentColor"/>
<path d="M115.275 18.4024C121.196 17.7476 125.534 23.1453 125.022 29.1076C124.547 34.6438 120.441 38.4224 115.085 37.9422C112.403 37.7017 110.822 36.4454 109.138 34.3661L109.125 38.3673L109.113 45.9709C108.166 46.0219 107.136 45.9921 106.181 45.984C106.279 36.9873 106.186 27.7894 106.191 18.7775L109.115 18.7812L109.138 22.0565L109.232 21.9326C111 19.6248 112.468 18.7282 115.275 18.4024ZM116.353 34.9416C119.935 34.4793 122.488 31.093 122.071 27.3574C121.655 23.622 118.424 20.9362 114.836 21.3423C111.21 21.7528 108.598 25.1628 109.02 28.9382C109.441 32.7136 112.733 35.4086 116.353 34.9416Z" fill="currentColor"/>
<path d="M238.158 10.6586C239.161 10.6411 240.188 10.6459 241.192 10.64C241.264 19.4618 241.287 28.7653 241.16 37.577L238.171 37.5595L238.158 34.4766C235.148 38.3637 231.145 38.9689 226.973 36.6349C220.292 31.6599 221.624 20.1605 230.089 18.4189C233.302 17.7582 236.144 19.1277 238.151 21.7953L238.158 10.6586ZM232.628 35.0245C240.859 33.6428 239.901 20.8459 231.428 21.2732C222.847 22.4636 224.546 35.8835 232.628 35.0245Z" fill="currentColor"/>
<path d="M257.044 18.4011C262.201 17.6796 266.947 21.4387 267.66 26.8095C268.373 32.1802 264.783 37.1405 259.633 37.9047C254.452 38.6731 249.658 34.908 248.942 29.507C248.225 24.106 251.857 19.1267 257.044 18.4011ZM259.13 35.0489C267.201 33.4847 266.27 20.7843 257.544 21.2738C249.284 22.7022 250.494 35.8075 259.13 35.0489Z" fill="currentColor"/>
<path d="M135.304 18.4089C135.652 18.3729 136.001 18.357 136.35 18.3609C142.66 18.4046 145.46 22.8676 145.366 29.0151L130.128 29.0288C130.436 30.9112 130.979 32.408 132.446 33.663C133.779 34.786 135.487 35.3073 137.19 35.1112C138.939 34.9263 140.144 34.1454 141.234 32.7582C141.481 32.3057 141.539 32.1596 141.942 31.8644C142.904 31.649 143.913 32.0192 144.905 32.2596C144.557 33.1283 144.204 33.8606 143.662 34.6204C140.794 38.6423 134.353 39.0173 130.666 36.0456C128.739 34.4702 127.492 32.1607 127.2 29.6264C126.482 23.7861 129.604 19.1185 135.304 18.4089ZM130.265 26.3599L137.201 26.3676L142.324 26.3596C141.374 22.5139 139.317 20.961 135.445 21.2684C132.46 21.8169 130.986 23.2866 130.265 26.3599Z" fill="currentColor"/>
<path d="M181.828 10.4429C183.582 10.2238 186.333 11.0068 187.738 12.1498C189.795 13.8252 190.394 15.4061 190.773 17.9527C189.744 18.0853 188.717 18.2328 187.693 18.3955C187.363 16.9259 187.165 16.0071 186.058 14.9499C184.038 13.0183 180.193 13.017 178.282 15.0991C177.674 15.7631 177.129 17.3374 177.301 18.2371C178.255 23.2063 186.445 21.831 189.381 25.2762C190.585 26.4482 191.358 27.875 191.384 29.6859C191.473 35.8348 187.268 37.7922 182.299 38.0218C176.84 37.6724 174.181 35.425 173.118 29.8548C174.19 29.7575 175.264 29.6785 176.338 29.618C177.414 33.8704 179.299 35.2547 183.674 34.919C186.13 34.7306 188.476 32.5925 188.016 29.8811C187.178 24.9582 179.224 26.0959 176.276 23.072C175.012 21.7854 174.307 20.9727 174.13 19.0586C173.578 13.6549 177.051 10.9327 181.828 10.4429Z" fill="currentColor"/>
<path d="M205.494 18.7369L208.228 18.7514C208.405 23.0102 207.969 27.4047 208.435 31.6154C208.64 33.4777 210.335 34.8327 212.062 34.9583C215.661 35.2203 217.839 32.7547 217.853 29.0917C217.866 25.6416 217.836 22.2195 217.834 18.7876C218.719 18.7183 219.957 18.7498 220.868 18.7452L220.881 24.9327C220.909 29.1365 220.897 33.3403 220.843 37.5437C219.856 37.5629 218.831 37.552 217.84 37.5554L217.817 34.7446C214.419 39.2804 208.089 39.229 205.766 33.8427C205.196 32.5216 204.925 19.2352 205.494 18.7369Z" fill="currentColor"/>
<path d="M155.573 18.414C155.838 18.3837 156.105 18.3695 156.372 18.3716C162.694 18.3769 163.242 23.363 163.128 28.6705C163.065 31.5843 163.101 34.6473 163.084 37.573L160.13 37.5701C160.139 33.9592 160.131 30.3376 160.129 26.7273C160.128 22.4646 157.649 20.2639 153.636 21.6571C150.834 22.7869 150.497 25.7578 150.542 28.4761C150.591 31.4941 150.567 34.5419 150.564 37.562L147.677 37.5642L147.679 18.7707C148.503 18.7007 149.709 18.7297 150.562 18.7237L150.575 21.6241C150.601 21.5865 150.626 21.5494 150.652 21.5125C152.033 19.5516 153.284 18.7746 155.573 18.414Z" fill="currentColor"/>
<path d="M195.225 13.728L198.165 13.7142L198.185 18.7963L203.103 18.7212L203.051 21.5813L198.207 21.5854C198.124 24.7539 198.135 27.9934 198.161 31.1649C198.194 35.0441 200.293 34.741 203.091 34.5497L203.073 36.7025C203.065 36.8802 203.013 37.1558 202.984 37.3402C201.479 38.55 196.296 37.3681 195.711 34.7881C194.791 30.737 195.196 25.8174 195.222 21.6007C194.119 21.5514 192.697 21.5917 191.571 21.5904L191.573 18.7462C192.788 18.7594 194.004 18.7634 195.219 18.7584L195.225 13.728Z" fill="currentColor"/>
<path d="M243.956 18.8022C244.847 18.7393 245.984 18.7732 246.894 18.7745C247.016 24.6065 247.045 31.611 246.889 37.4163C246.593 37.6668 244.464 37.551 243.953 37.5418L243.956 18.8022Z" fill="currentColor"/>
<path d="M244.844 10.9461C245.573 10.7086 246.37 10.9002 246.926 11.4472C247.482 11.9942 247.711 12.8112 247.525 13.5839C247.339 14.3567 246.767 14.9645 246.03 15.1737C244.918 15.4892 243.769 14.8186 243.446 13.6662C243.122 12.5136 243.744 11.3039 244.844 10.9461Z" fill="currentColor"/>
<path d="M5.47621 0.0252756C5.64876 0.0116884 5.92735 0.0174283 6.10966 0.0161776L35.4469 0.0162921L44.0806 0.014644C45.5475 0.012711 47.3245 -0.0489142 48.7581 0.0960539C49.8787 0.272062 50.952 0.869445 51.7463 1.61293C53.8438 3.57557 53.4765 6.04111 53.4735 8.63593L53.4724 13.8793L50.0618 13.8862L50.0671 8.21711C50.0688 7.26294 50.1033 6.20325 50.0267 5.25908C49.9969 4.88961 49.8267 4.39581 49.5565 4.12338C49.0102 3.57296 48.5791 3.44783 47.8187 3.43305C46.8448 3.41406 45.8669 3.42594 44.8948 3.42674L39.3973 3.42884L22.6295 3.42754L11.0309 3.431L7.55343 3.42725C6.85875 3.42515 6.18383 3.41321 5.48347 3.44812C4.6415 3.43999 3.6102 4.15834 3.53779 5.031C3.42467 6.39404 3.48784 7.91422 3.48994 9.29897L3.48924 18.2938L3.48439 36.0544L3.45813 41.4438C3.45386 42.363 3.43555 43.2868 3.47749 44.2061C3.51094 44.9383 4.22406 45.674 4.97788 45.7314C5.70678 45.7871 6.49037 45.7632 7.22647 45.7621L11.6369 45.7593L27.0904 45.7604C27.1301 46.8639 27.1155 48.0765 27.1079 49.1828L11.5542 49.1811L7.20033 49.1856C6.40772 49.1868 5.1799 49.2232 4.42596 49.114C3.52703 48.9918 2.67904 48.6353 1.97236 48.0816C-0.211839 46.3408 0.000538392 44.6518 0.0094289 42.1862L0.0119421 38.0151L0.0112996 23.986L0.0111246 11.1869L0.0116494 7.22928C0.0120004 6.61399 -0.013441 5.56323 0.055285 4.97358C0.186361 3.89894 0.633926 2.88399 1.34429 2.05079C2.4153 0.805828 3.8317 0.164104 5.47621 0.0252756Z" fill="currentColor"/>
<path d="M20.5038 17.1766C20.9508 17.1461 21.2886 17.1536 21.6776 17.3925C24.838 19.3336 27.9954 21.2851 31.1357 23.2562C31.3083 23.3645 31.4434 23.4927 31.5592 23.6574C31.8078 24.019 31.8937 24.4639 31.7961 24.8884C31.6118 25.6619 30.3426 26.3152 29.6764 26.73L27.0502 28.3614L23.4348 30.6331C22.9813 30.918 21.8207 31.6797 21.3743 31.852C20.9966 31.9964 20.5756 31.989 20.2035 31.8315C19.8097 31.6638 19.494 31.3187 19.3603 30.9214C19.2031 30.4535 19.2402 19.9556 19.3068 18.6918C19.3202 18.4391 19.3265 18.191 19.4505 17.9628C19.6822 17.5359 20.0398 17.3141 20.5038 17.1766Z" fill="currentColor"/>
<path d="M49.9783 34.7513C51.1089 34.7354 52.2629 34.7474 53.3947 34.7479L53.4005 41.1641C53.4011 43.6797 53.7819 45.6154 52.0529 47.6825C51.4095 48.342 50.81 48.6734 49.959 49.0145L49.9783 34.7513Z" fill="currentColor"/>
<path d="M38.0416 32.6502C39.2553 32.5831 39.7828 33.2062 39.7787 34.3363C39.7717 36.2107 39.8173 38.093 39.76 39.9668C39.7355 40.7724 39.2786 41.0976 38.527 41.321C38.2229 41.3318 37.9533 41.3073 37.669 41.1948C37.373 41.0782 37.0519 40.8463 36.939 40.5433C36.7033 39.9134 36.7402 34.9293 36.8156 34.0271C36.8343 33.8076 36.8577 33.5774 36.9654 33.3801C37.19 32.9697 37.6006 32.7718 38.0416 32.6502Z" fill="currentColor"/>
<path d="M37.8532 9.62602C38.1597 9.58571 38.4475 9.56417 38.7493 9.65047C39.1307 9.75956 39.5044 10.0593 39.6682 10.4152C39.8828 10.882 39.8735 16.8508 39.6746 17.3359C39.4974 17.7687 39.1049 17.9758 38.6832 18.1403C37.6889 18.3222 36.8337 17.7982 36.8133 16.7511C36.7747 15.0015 36.7986 13.2474 36.7957 11.4973C36.7946 10.5118 36.8606 10.0685 37.8532 9.62602Z" fill="currentColor"/>
<path d="M37.9772 21.1638C38.3152 21.1443 38.6176 21.162 38.9346 21.2893C39.2201 21.4039 39.547 21.6596 39.6517 21.9521C39.8605 22.5334 39.8851 28.329 39.6629 28.8014C39.447 29.259 39.0639 29.4427 38.6018 29.5984C38.2801 29.6235 38.0064 29.6149 37.7011 29.5029C37.394 29.3898 37.0805 29.1624 36.9512 28.8583C36.7114 28.292 36.688 22.4971 36.9314 21.9429C37.1174 21.5201 37.5601 21.3116 37.9772 21.1638Z" fill="currentColor"/>
</svg>
