<svg width="191" height="36" viewBox="0 0 191 36" fill="none" xmlns="http://www.w3.org/2000/svg">
<path d="M12.039 0.0850384C19.4773 -0.764511 26.1615 4.84777 26.9462 12.6018C27.731 20.3557 22.3174 27.2974 14.8727 28.0834C7.47094 28.8648 0.855902 23.2636 0.0755766 15.5545C-0.704596 7.84516 4.64367 0.929492 12.039 0.0850384ZM15.2065 24.7553C20.8366 23.7769 24.6509 18.2441 23.7435 12.3722C22.836 6.50053 17.5475 2.49515 11.9073 3.40792C6.22251 4.32785 2.34121 9.89172 3.25587 15.8101C4.17053 21.7282 9.53179 25.7413 15.2065 24.7553Z" fill="currentColor"/>
<path d="M38.5254 8.15242C44.4462 7.49762 48.7844 12.8954 48.2721 18.8577C47.7966 24.3939 43.6911 28.1725 38.3345 27.6922C35.6531 27.4518 34.0716 26.1955 32.3883 24.1161L32.3747 28.1174L32.3635 35.721C31.4164 35.7719 30.3859 35.7421 29.4314 35.734C29.5289 26.7374 29.4361 17.5395 29.4406 8.52759L32.365 8.53125L32.3878 11.8065L32.4822 11.6826C34.2501 9.37491 35.7182 8.47823 38.5254 8.15242ZM39.603 24.6916C43.1847 24.2294 45.738 20.8431 45.3214 17.1075C44.9046 13.372 41.6741 10.6863 38.086 11.0923C34.4596 11.5028 31.8485 14.9128 32.2697 18.6883C32.6908 22.4637 35.983 25.1587 39.603 24.6916Z" fill="currentColor"/>
<path d="M161.408 0.408647C162.411 0.39113 163.438 0.395907 164.442 0.390015C164.514 9.21179 164.537 18.5153 164.41 27.327L161.421 27.3095L161.408 24.2266C158.398 28.1137 154.395 28.7189 150.223 26.3849C143.542 21.4099 144.874 9.91054 153.339 8.16892C156.552 7.50824 159.394 8.8777 161.401 11.5453L161.408 0.408647ZM155.878 24.7745C164.109 23.3928 163.151 10.5959 154.678 11.0232C146.097 12.2136 147.796 25.6335 155.878 24.7745Z" fill="currentColor"/>
<path d="M180.294 8.15108C185.451 7.42956 190.197 11.1887 190.91 16.5595C191.623 21.9302 188.033 26.8905 182.883 27.6547C177.702 28.4231 172.908 24.658 172.192 19.257C171.475 13.856 175.107 8.87674 180.294 8.15108ZM182.38 24.7989C190.451 23.2347 189.52 10.5343 180.794 11.0238C172.534 12.4522 173.744 25.5575 182.38 24.7989Z" fill="currentColor"/>
<path d="M58.554 8.15888C58.9015 8.12289 59.2509 8.10697 59.6003 8.11095C65.9103 8.15458 68.7102 12.6176 68.6156 18.7651L53.3778 18.7788C53.6858 20.6612 54.2289 22.158 55.6965 23.413C57.0288 24.536 58.7368 25.0573 60.44 24.8612C62.1891 24.6763 63.394 23.8954 64.4839 22.5082C64.7309 22.0557 64.7885 21.9096 65.1915 21.6144C66.1537 21.399 67.1631 21.7692 68.1547 22.0096C67.8073 22.8783 67.4538 23.6106 66.912 24.3704C64.0438 28.3923 57.6035 28.7673 53.9161 25.7956C51.9887 24.2202 50.7416 21.9107 50.45 19.3764C49.7325 13.5361 52.8544 8.86846 58.554 8.15888ZM53.5146 16.1099L60.4515 16.1176L65.5736 16.1096C64.6244 12.2639 62.5669 10.711 58.6954 11.0184C55.7099 11.5669 54.2363 13.0366 53.5146 16.1099Z" fill="currentColor"/>
<path d="M105.078 0.192825C106.832 -0.0262898 109.583 0.756696 110.988 1.89973C113.045 3.5751 113.644 5.15604 114.023 7.70262C112.994 7.83527 111.967 7.98272 110.943 8.14547C110.613 6.67584 110.415 5.75702 109.308 4.69982C107.288 2.76823 103.443 2.76695 101.532 4.84902C100.924 5.51306 100.379 7.08731 100.551 7.98702C101.505 12.9563 109.695 11.5809 112.631 15.0261C113.835 16.1981 114.608 17.6249 114.634 19.4358C114.723 25.5847 110.518 27.5421 105.549 27.7717C100.09 27.4224 97.4305 25.175 96.3684 19.6047C97.4397 19.5074 98.5141 19.4285 99.5884 19.368C100.664 23.6203 102.549 25.0046 106.924 24.6689C109.38 24.4805 111.726 22.3424 111.266 19.631C110.428 14.7081 102.474 15.8459 99.5258 12.8219C98.2619 11.5354 97.5574 10.7226 97.3801 8.80855C96.8284 3.40487 100.301 0.68265 105.078 0.192825Z" fill="currentColor"/>
<path d="M128.744 8.48694L131.478 8.50143C131.655 12.7602 131.219 17.1547 131.685 21.3654C131.89 23.2277 133.585 24.5827 135.312 24.7083C138.911 24.9703 141.089 22.5047 141.103 18.8417C141.116 15.3916 141.086 11.9695 141.084 8.53758C141.969 8.46831 143.207 8.49984 144.118 8.49522L144.131 14.6827C144.159 18.8865 144.147 23.0903 144.093 27.2937C143.106 27.3129 142.081 27.302 141.09 27.3054L141.067 24.4946C137.669 29.0304 131.339 28.979 129.016 23.5927C128.446 22.2716 128.175 8.9852 128.744 8.48694Z" fill="currentColor"/>
<path d="M78.8227 8.16402C79.0882 8.13376 79.3552 8.11959 79.6222 8.12166C85.9438 8.12691 86.4924 13.1131 86.378 18.4206C86.3152 21.3343 86.3514 24.3973 86.3343 27.3231L83.38 27.3202C83.3895 23.7093 83.3806 20.0876 83.3794 16.4773C83.3779 12.2146 80.899 10.0139 76.8857 11.4071C74.0842 12.5369 73.7471 15.5079 73.7919 18.2261C73.8414 21.2442 73.8166 24.2919 73.8137 27.3121L70.9275 27.3143L70.929 8.52072C71.7534 8.45081 72.9587 8.47979 73.8118 8.47374L73.8254 11.3742C73.8507 11.3366 73.8764 11.2995 73.9024 11.2625C75.2826 9.30163 76.5342 8.5247 78.8227 8.16402Z" fill="currentColor"/>
<path d="M118.475 3.47797L121.415 3.46411L121.435 8.54628L126.353 8.47112L126.301 11.3312L121.457 11.3354C121.374 14.5038 121.385 17.7434 121.411 20.9148C121.444 24.7941 123.543 24.4909 126.341 24.2996L126.323 26.4524C126.315 26.6301 126.263 26.9058 126.234 27.0902C124.729 28.2999 119.546 27.118 118.961 24.538C118.041 20.4869 118.446 15.5674 118.472 11.3507C117.369 11.3013 115.947 11.3416 114.821 11.3403L114.823 8.49612C116.038 8.50934 117.254 8.51332 118.469 8.50838L118.475 3.47797Z" fill="currentColor"/>
<path d="M167.206 8.55226C168.097 8.48936 169.234 8.52327 170.144 8.52455C170.266 14.3566 170.295 21.3611 170.139 27.1664C169.843 27.4169 167.714 27.3011 167.203 27.2919L167.206 8.55226Z" fill="currentColor"/>
<path d="M168.094 0.696118C168.823 0.45869 169.62 0.650257 170.176 1.19725C170.732 1.74424 170.961 2.56131 170.775 3.33394C170.589 4.10674 170.017 4.71456 169.28 4.9238C168.168 5.23925 167.019 4.56869 166.696 3.41627C166.372 2.26368 166.994 1.05393 168.094 0.696118Z" fill="currentColor"/>
</svg>
