<svg width="128" height="128" viewBox="0 0 128 128" fill="none" xmlns="http://www.w3.org/2000/svg">
<path d="M22.7431 16.8799C23.0818 16.8525 23.6286 16.8641 23.9865 16.8616L81.5708 16.8618L98.5175 16.8585C101.397 16.8546 104.885 16.7301 107.699 17.0229C109.898 17.3783 112.005 18.5847 113.564 20.0862C117.681 24.0496 116.96 29.0287 116.954 34.2688L116.952 44.8576L110.258 44.8716L110.268 33.4231C110.271 31.4961 110.339 29.3561 110.189 27.4494C110.13 26.7033 109.796 25.7061 109.266 25.1559C108.193 24.0444 107.347 23.7917 105.855 23.7618C103.943 23.7235 102.024 23.7475 100.116 23.7491L89.3249 23.7533L56.4122 23.7507L33.6461 23.7577L26.8204 23.7501C25.4568 23.7459 24.132 23.7217 22.7573 23.7922C21.1047 23.7758 19.0804 25.2265 18.9383 26.9888C18.7162 29.7414 18.8402 32.8114 18.8444 35.6078L18.843 53.7725L18.8335 89.6394L18.7819 100.523C18.7735 102.38 18.7376 104.245 18.8199 106.102C18.8856 107.58 20.2853 109.066 21.7649 109.182C23.1957 109.294 24.7337 109.246 26.1786 109.244L34.8356 109.238L65.1683 109.24C65.2464 111.469 65.2177 113.918 65.2028 116.152L34.6733 116.148L26.1273 116.158C24.5715 116.16 22.1615 116.233 20.6816 116.013C18.9171 115.766 17.2527 115.046 15.8656 113.928C11.5783 110.413 11.9952 107.002 12.0126 102.023L12.0176 93.5991L12.0163 65.2678L12.016 39.4205L12.017 31.4282C12.0177 30.1856 11.9678 28.0636 12.1027 26.8729C12.3599 24.7027 13.2384 22.653 14.6328 20.9704C16.735 18.4562 19.5152 17.1603 22.7431 16.8799Z" fill="currentColor"/>
<path d="M52.2399 51.5164C53.1171 51.4548 53.7803 51.4701 54.5437 51.9525C60.7472 55.8725 66.9446 59.8133 73.1086 63.7939C73.4473 64.0126 73.7125 64.2715 73.9398 64.6041C74.4277 65.3344 74.5965 66.2328 74.4048 67.0902C74.0431 68.6521 71.5518 69.9715 70.2442 70.8092L65.0893 74.1037L57.993 78.6914C57.1027 79.2666 54.8247 80.805 53.9484 81.1529C53.2071 81.4445 52.3807 81.4296 51.6503 81.1115C50.8773 80.7729 50.2577 80.076 49.9954 79.2735C49.6867 78.3286 49.7596 57.1286 49.8903 54.5764C49.9165 54.0661 49.929 53.5649 50.1723 53.1041C50.6272 52.242 51.329 51.7942 52.2399 51.5164Z" fill="currentColor"/>
<path d="M110.094 87.008C112.313 86.9759 114.578 87 116.799 87.0012L116.811 99.9583C116.812 105.038 117.559 108.948 114.166 113.122C112.903 114.454 111.726 115.123 110.056 115.812L110.094 87.008Z" fill="currentColor"/>
<path d="M86.6634 82.7648C89.0457 82.6293 90.0812 83.8876 90.0732 86.1699C90.0594 89.9551 90.1489 93.7564 90.0364 97.5404C89.9882 99.1673 89.0916 99.824 87.6163 100.275C87.0193 100.297 86.49 100.248 85.9321 100.02C85.3512 99.7849 84.7209 99.3165 84.4993 98.7046C84.0366 97.4325 84.1089 87.3674 84.2571 85.5454C84.2938 85.1022 84.3397 84.6373 84.551 84.2389C84.9918 83.41 85.7978 83.0105 86.6634 82.7648Z" fill="currentColor"/>
<path d="M86.2939 36.2684C86.8955 36.187 87.4604 36.1434 88.0528 36.3177C88.8013 36.538 89.5349 37.1433 89.8564 37.8621C90.2777 38.8047 90.2594 50.8586 89.869 51.8381C89.5212 52.7122 88.7508 53.1304 87.9231 53.4627C85.9713 53.8301 84.2929 52.7719 84.2527 50.6571C84.1769 47.1239 84.224 43.5817 84.2182 40.0473C84.2159 38.0572 84.3457 37.1619 86.2939 36.2684Z" fill="currentColor"/>
<path d="M86.5375 59.5685C87.2011 59.5291 87.7946 59.5649 88.4169 59.8218C88.9772 60.0533 89.6189 60.5697 89.8244 61.1604C90.2343 62.3344 90.2825 74.0383 89.8463 74.9923C89.4226 75.9165 88.6706 76.2874 87.7637 76.6019C87.1322 76.6524 86.5949 76.6352 85.9956 76.4091C85.3929 76.1806 84.7775 75.7214 84.5238 75.1071C84.0531 73.9637 84.0072 62.2609 84.4848 61.1418C84.8498 60.2881 85.7189 59.867 86.5375 59.5685Z" fill="currentColor"/>
</svg>
